#pragma bank 2
const void __at(2) __bank_part1_music;

#include "hUGEDriver.h"
#include <stddef.h>

static const unsigned char order_cnt = 62;

static const unsigned char P0[] = {
    DN(E_5,1,0x000),
    DN(Gs5,1,0x000),
    DN(B_5,1,0x000),
    DN(E_6,1,0x000),
    DN(E_5,1,0x000),
    DN(Gs5,1,0x000),
    DN(B_5,1,0x000),
    DN(E_6,1,0x000),
    DN(E_5,1,0x000),
    DN(Gs5,1,0x000),
    DN(B_5,1,0x000),
    DN(E_6,1,0x000),
    DN(E_5,1,0x000),
    DN(Gs5,1,0x000),
    DN(B_5,1,0x000),
    DN(E_6,1,0x000),
    DN(Ds5,1,0x000),
    DN(Gs5,1,0x000),
    DN(B_5,1,0x000),
    DN(Ds6,1,0x000),
    DN(Ds5,1,0x000),
    DN(Gs5,1,0x000),
    DN(B_5,1,0x000),
    DN(Ds6,1,0x000),
    DN(Ds5,1,0x000),
    DN(Gs5,1,0x000),
    DN(B_5,1,0x000),
    DN(Ds6,1,0x000),
    DN(Ds5,1,0x000),
    DN(Gs5,1,0x000),
    DN(B_5,1,0x000),
    DN(Ds6,1,0x000),
    DN(Cs5,1,0x000),
    DN(Fs5,1,0x000),
    DN(Gs5,1,0x000),
    DN(Cs6,1,0x000),
    DN(Cs5,1,0x000),
    DN(Fs5,1,0x000),
    DN(Gs5,1,0x000),
    DN(Cs6,1,0x000),
    DN(Cs5,1,0x000),
    DN(Fs5,1,0x000),
    DN(Gs5,1,0x000),
    DN(Cs6,1,0x000),
    DN(Cs5,1,0x000),
    DN(Fs5,1,0x000),
    DN(Gs5,1,0x000),
    DN(Cs6,1,0x000),
    DN(Cs5,1,0x000),
    DN(Gs5,1,0x000),
    DN(B_5,1,0x000),
    DN(Ds6,1,0x000),
    DN(Ds5,1,0x000),
    DN(Gs5,1,0x000),
    DN(B_5,1,0x000),
    DN(Ds6,1,0x000),
    DN(Ds5,1,0x000),
    DN(Gs5,1,0x000),
    DN(B_5,1,0x000),
    DN(Ds6,1,0x000),
    DN(Ds5,1,0x000),
    DN(Gs5,1,0x000),
    DN(B_5,1,0x000),
    DN(Ds6,1,0x000),
};
static const unsigned char P1[] = {
    DN(___,0,0x000),
    DN(___,0,0x000),
    DN(___,0,0x000),
    DN(___,0,0x000),
    DN(___,0,0x000),
    DN(___,0,0x000),
    DN(___,0,0x000),
    DN(___,0,0x000),
    DN(___,0,0x000),
    DN(___,0,0x000),
    DN(___,0,0x000),
    DN(___,0,0x000),
    DN(___,0,0x000),
    DN(___,0,0x000),
    DN(___,0,0x000),
    DN(___,0,0x000),
    DN(___,0,0x000),
    DN(___,0,0x000),
    DN(___,0,0x000),
    DN(___,0,0x000),
    DN(___,0,0x000),
    DN(___,0,0x000),
    DN(___,0,0x000),
    DN(___,0,0x000),
    DN(___,0,0x000),
    DN(___,0,0x000),
    DN(___,0,0x000),
    DN(___,0,0x000),
    DN(___,0,0x000),
    DN(___,0,0x000),
    DN(___,0,0x000),
    DN(___,0,0x000),
    DN(___,0,0x000),
    DN(___,0,0x000),
    DN(___,0,0x000),
    DN(___,0,0x000),
    DN(___,0,0x000),
    DN(___,0,0x000),
    DN(___,0,0x000),
    DN(___,0,0x000),
    DN(___,0,0x000),
    DN(___,0,0x000),
    DN(___,0,0x000),
    DN(___,0,0x000),
    DN(___,0,0x000),
    DN(___,0,0x000),
    DN(___,0,0x000),
    DN(___,0,0x000),
    DN(___,0,0x000),
    DN(___,0,0x000),
    DN(___,0,0x000),
    DN(___,0,0x000),
    DN(___,0,0x000),
    DN(___,0,0x000),
    DN(___,0,0x000),
    DN(___,0,0x000),
    DN(___,0,0x000),
    DN(___,0,0x000),
    DN(___,0,0x000),
    DN(___,0,0x000),
    DN(___,0,0x000),
    DN(___,0,0x000),
    DN(___,0,0x000),
    DN(___,0,0x000),
};
static const unsigned char P2[] = {
    DN(Cs6,1,0x037),
    DN(___,0,0x000),
    DN(Cs6,1,0xC03),
    DN(___,0,0x000),
    DN(Cs6,1,0x037),
    DN(Cs6,1,0xC03),
    DN(Cs6,1,0x037),
    DN(Cs6,1,0xC03),
    DN(Cs6,1,0x057),
    DN(Cs6,1,0xC03),
    DN(Cs6,1,0x037),
    DN(Cs6,1,0xC03),
    DN(Cs6,1,0x077),
    DN(Cs6,1,0xC03),
    DN(Cs6,1,0x037),
    DN(Cs6,1,0xC03),
    DN(B_5,1,0x047),
    DN(___,0,0x000),
    DN(B_5,1,0xC03),
    DN(___,0,0x000),
    DN(B_5,1,0x047),
    DN(B_5,1,0xC03),
    DN(B_5,1,0x047),
    DN(B_5,1,0xC03),
    DN(Cs6,1,0x057),
    DN(Cs6,1,0xC03),
    DN(B_5,1,0x047),
    DN(B_5,1,0xC03),
    DN(Cs6,1,0x077),
    DN(Cs6,1,0xC03),
    DN(B_5,1,0x047),
    DN(B_5,1,0xC03),
    DN(Fs5,1,0x037),
    DN(___,0,0x000),
    DN(Fs5,1,0xC03),
    DN(___,0,0x000),
    DN(Fs5,1,0x037),
    DN(Fs5,1,0xC03),
    DN(Fs5,1,0x037),
    DN(___,0,0x000),
    DN(Fs5,1,0xC03),
    DN(___,0,0x000),
    DN(Fs5,1,0x037),
    DN(___,0,0x000),
    DN(Fs5,1,0xC03),
    DN(___,0,0x000),
    DN(Fs5,1,0x037),
    DN(Fs5,1,0xC03),
    DN(B_5,1,0x047),
    DN(___,0,0x000),
    DN(B_5,1,0xC03),
    DN(___,0,0x000),
    DN(B_5,1,0x047),
    DN(B_5,1,0xC03),
    DN(B_5,1,0x047),
    DN(___,0,0x000),
    DN(B_5,1,0xC03),
    DN(___,0,0x000),
    DN(B_5,1,0x047),
    DN(___,0,0x000),
    DN(B_5,1,0xC03),
    DN(___,0,0x000),
    DN(Cs6,1,0x047),
    DN(___,0,0x000),
};
static const unsigned char P3[] = {
    DN(C_3,1,0xC07),
    DN(___,0,0x000),
    DN(___,0,0x000),
    DN(___,0,0x000),
    DN(___,0,0x000),
    DN(___,0,0x000),
    DN(___,0,0x000),
    DN(___,0,0x000),
    DN(___,0,0x000),
    DN(C_3,1,0x301),
    DN(___,0,0x302),
    DN(___,0,0x304),
    DN(___,0,0x304),
    DN(___,0,0x000),
    DN(___,0,0x000),
    DN(___,0,0x202),
    DN(C_3,1,0xC07),
    DN(___,0,0x000),
    DN(___,0,0x000),
    DN(___,0,0x000),
    DN(___,0,0x000),
    DN(___,0,0x000),
    DN(___,0,0x000),
    DN(___,0,0x000),
    DN(___,0,0x000),
    DN(___,0,0x000),
    DN(___,0,0x000),
    DN(___,0,0x000),
    DN(___,0,0x201),
    DN(___,0,0x201),
    DN(___,0,0x201),
    DN(___,0,0x201),
    DN(C_3,1,0xC07),
    DN(___,0,0x000),
    DN(___,0,0x000),
    DN(___,0,0x000),
    DN(___,0,0x000),
    DN(___,0,0x000),
    DN(___,0,0x000),
    DN(___,0,0x000),
    DN(___,0,0x000),
    DN(C_3,1,0x301),
    DN(___,0,0x302),
    DN(___,0,0x303),
    DN(___,0,0x304),
    DN(___,0,0x000),
    DN(___,0,0x000),
    DN(___,0,0x000),
    DN(C_3,1,0xC07),
    DN(___,0,0x000),
    DN(___,0,0x000),
    DN(___,0,0x000),
    DN(___,0,0x000),
    DN(___,0,0x000),
    DN(___,0,0x000),
    DN(___,0,0x000),
    DN(___,0,0x000),
    DN(___,0,0x000),
    DN(___,0,0x000),
    DN(___,0,0x000),
    DN(___,0,0x000),
    DN(___,0,0x000),
    DN(___,0,0x000),
    DN(___,0,0x000),
};
static const unsigned char P21[] = {
    DN(E_5,4,0x000),
    DN(___,0,0x000),
    DN(D_6,2,0x000),
    DN(___,0,0x000),
    DN(E_6,2,0x000),
    DN(___,0,0x000),
    DN(E_5,4,0x000),
    DN(___,0,0x000),
    DN(B_5,3,0x000),
    DN(___,0,0x000),
    DN(D_6,2,0x000),
    DN(___,0,0x000),
    DN(D_6,2,0x000),
    DN(___,0,0x000),
    DN(E_6,2,0x000),
    DN(___,0,0x000),
    DN(E_5,4,0x000),
    DN(___,0,0x000),
    DN(E_5,4,0x000),
    DN(___,0,0x000),
    DN(E_6,2,0x000),
    DN(___,0,0x000),
    DN(E_5,4,0x000),
    DN(___,0,0x000),
    DN(B_5,3,0x000),
    DN(___,0,0x000),
    DN(D_6,2,0x000),
    DN(___,0,0x000),
    DN(D_6,2,0x000),
    DN(___,0,0x000),
    DN(E_6,2,0x000),
    DN(___,0,0x000),
    DN(E_5,4,0x000),
    DN(___,0,0x000),
    DN(D_6,2,0x000),
    DN(___,0,0x000),
    DN(E_6,2,0x000),
    DN(___,0,0x000),
    DN(D_6,2,0x000),
    DN(___,0,0x000),
    DN(B_5,3,0x000),
    DN(___,0,0x000),
    DN(D_6,2,0x000),
    DN(___,0,0x000),
    DN(D_6,2,0x000),
    DN(___,0,0x000),
    DN(E_6,2,0x000),
    DN(___,0,0x000),
    DN(E_5,4,0x000),
    DN(___,0,0x000),
    DN(D_6,2,0x000),
    DN(___,0,0x000),
    DN(E_6,2,0x000),
    DN(___,0,0x000),
    DN(D_6,2,0x000),
    DN(___,0,0x000),
    DN(B_5,3,0x000),
    DN(___,0,0x000),
    DN(E_5,4,0x000),
    DN(___,0,0x000),
    DN(E_6,2,0x000),
    DN(___,0,0x000),
    DN(D_6,2,0x000),
    DN(___,0,0x000),
};
static const unsigned char P22[] = {
    DN(Cs5,1,0x037),
    DN(Cs5,1,0xC00),
    DN(___,0,0x000),
    DN(___,0,0x000),
    DN(Cs5,1,0x037),
    DN(Cs5,1,0xC00),
    DN(Cs5,1,0x037),
    DN(Cs5,1,0xC00),
    DN(Cs5,1,0x057),
    DN(Cs5,1,0xC00),
    DN(Cs5,1,0x037),
    DN(Cs5,1,0xC00),
    DN(Cs5,1,0x077),
    DN(Cs5,1,0xC00),
    DN(Cs5,1,0x037),
    DN(Cs5,1,0xC00),
    DN(B_4,1,0x047),
    DN(B_4,1,0xC00),
    DN(___,0,0x000),
    DN(___,0,0x000),
    DN(B_4,1,0x047),
    DN(B_4,1,0xC00),
    DN(B_4,1,0x047),
    DN(B_4,1,0xC00),
    DN(Cs5,1,0x057),
    DN(Cs5,1,0xC00),
    DN(B_4,1,0x047),
    DN(B_4,1,0xC00),
    DN(Cs5,1,0x077),
    DN(Cs5,1,0xC00),
    DN(B_4,1,0x047),
    DN(B_4,1,0xC00),
    DN(Fs4,1,0x037),
    DN(Fs4,1,0xC00),
    DN(___,0,0x000),
    DN(___,0,0x000),
    DN(Fs4,1,0x037),
    DN(Fs4,1,0xC00),
    DN(Fs4,1,0x037),
    DN(Fs4,1,0xC00),
    DN(___,0,0x000),
    DN(___,0,0x000),
    DN(Fs4,1,0x037),
    DN(Fs4,1,0xC00),
    DN(___,0,0x000),
    DN(___,0,0x000),
    DN(Fs4,1,0x037),
    DN(___,0,0x000),
    DN(B_4,1,0x047),
    DN(B_4,1,0xC00),
    DN(___,0,0x000),
    DN(___,0,0x000),
    DN(B_4,1,0x047),
    DN(B_4,1,0xC00),
    DN(B_4,1,0x047),
    DN(B_4,1,0xC00),
    DN(___,0,0x000),
    DN(___,0,0x000),
    DN(B_4,1,0x047),
    DN(B_4,1,0xC00),
    DN(___,0,0x000),
    DN(___,0,0x000),
    DN(B_4,1,0x047),
    DN(B_4,1,0xC00),
};
static const unsigned char P40[] = {
    DN(E_5,1,0x000),
    DN(Gs5,1,0xC07),
    DN(B_5,1,0x000),
    DN(E_6,1,0xC07),
    DN(E_5,1,0x000),
    DN(Gs5,1,0xC07),
    DN(B_5,1,0x000),
    DN(E_6,1,0xC07),
    DN(E_5,1,0x000),
    DN(Gs5,1,0xC07),
    DN(B_5,1,0x000),
    DN(E_6,1,0xC07),
    DN(E_5,1,0x000),
    DN(Gs5,1,0xC07),
    DN(B_5,1,0x000),
    DN(E_6,1,0xC07),
    DN(Ds5,1,0x000),
    DN(Gs5,1,0xC07),
    DN(B_5,1,0x000),
    DN(Ds6,1,0xC07),
    DN(Ds5,1,0x000),
    DN(Gs5,1,0xC07),
    DN(B_5,1,0x000),
    DN(Ds6,1,0xC07),
    DN(Ds5,1,0x000),
    DN(Gs5,1,0xC07),
    DN(B_5,1,0x000),
    DN(Ds6,1,0xC07),
    DN(Ds5,1,0x000),
    DN(Gs5,1,0xC07),
    DN(B_5,1,0x000),
    DN(Ds6,1,0xC07),
    DN(Cs5,1,0x000),
    DN(Fs5,1,0xC07),
    DN(Gs5,1,0x000),
    DN(Cs6,1,0xC07),
    DN(Cs5,1,0x000),
    DN(Fs5,1,0xC07),
    DN(Gs5,1,0x000),
    DN(Cs6,1,0xC07),
    DN(Cs5,1,0x000),
    DN(Fs5,1,0xC07),
    DN(Gs5,1,0x000),
    DN(Cs6,1,0xC07),
    DN(Cs5,1,0x000),
    DN(Fs5,1,0xC07),
    DN(Gs5,1,0x000),
    DN(Cs6,1,0xC07),
    DN(Cs5,1,0x000),
    DN(Gs5,1,0xC07),
    DN(B_5,1,0x000),
    DN(Ds6,1,0xC07),
    DN(Ds5,1,0x000),
    DN(Gs5,1,0xC07),
    DN(B_5,1,0x000),
    DN(Ds6,1,0xC07),
    DN(Ds5,1,0x000),
    DN(Gs5,1,0xC07),
    DN(B_5,1,0x000),
    DN(Ds6,1,0xC07),
    DN(Ds5,1,0x000),
    DN(Gs5,1,0xC07),
    DN(B_5,1,0x000),
    DN(Ds6,1,0xC07),
};
static const unsigned char P43[] = {
    DN(B_4,1,0x000),
    DN(___,0,0xA01),
    DN(___,0,0x000),
    DN(___,0,0xA01),
    DN(___,0,0x000),
    DN(___,0,0xA01),
    DN(___,0,0x000),
    DN(___,0,0xA01),
    DN(___,0,0x000),
    DN(___,0,0xA01),
    DN(___,0,0x000),
    DN(___,0,0xA01),
    DN(Cs5,1,0x000),
    DN(___,0,0x000),
    DN(B_4,1,0xC07),
    DN(___,0,0x000),
    DN(Cs5,1,0x000),
    DN(___,0,0xA01),
    DN(___,0,0x000),
    DN(___,0,0xA01),
    DN(___,0,0x000),
    DN(___,0,0xA01),
    DN(B_4,1,0x000),
    DN(___,0,0xA01),
    DN(___,0,0x000),
    DN(___,0,0xA01),
    DN(___,0,0x000),
    DN(___,0,0xA01),
    DN(Gs4,1,0x000),
    DN(___,0,0x000),
    DN(A_4,1,0xC07),
    DN(___,0,0x000),
    DN(Gs4,1,0x000),
    DN(___,0,0x000),
    DN(___,0,0x000),
    DN(___,0,0x000),
    DN(___,0,0x000),
    DN(___,0,0x000),
    DN(Fs4,1,0x000),
    DN(___,0,0x000),
    DN(___,0,0x000),
    DN(___,0,0x000),
    DN(E_4,1,0x000),
    DN(___,0,0x000),
    DN(___,0,0x000),
    DN(___,0,0x000),
    DN(Ds4,1,0x000),
    DN(___,0,0x000),
    DN(Cs4,1,0x000),
    DN(___,0,0x000),
    DN(___,0,0x000),
    DN(___,0,0x000),
    DN(Ds4,1,0x000),
    DN(___,0,0x000),
    DN(B_3,1,0x000),
    DN(___,0,0x000),
    DN(___,0,0x000),
    DN(___,0,0x000),
    DN(Gs3,1,0x000),
    DN(___,0,0x000),
    DN(___,0,0x000),
    DN(___,0,0x000),
    DN(___,0,0x000),
    DN(___,0,0x000),
};
static const unsigned char P71[] = {
    DN(E_5,4,0x000),
    DN(___,0,0x000),
    DN(D_6,2,0x000),
    DN(___,0,0x000),
    DN(E_6,2,0x000),
    DN(___,0,0x000),
    DN(E_5,4,0x000),
    DN(___,0,0x000),
    DN(B_5,3,0x000),
    DN(___,0,0x000),
    DN(D_6,2,0x000),
    DN(___,0,0x000),
    DN(D_6,2,0x000),
    DN(___,0,0x000),
    DN(E_6,2,0x000),
    DN(___,0,0x000),
    DN(E_5,4,0x000),
    DN(___,0,0x000),
    DN(G_6,2,0x000),
    DN(___,0,0x000),
    DN(E_6,2,0x000),
    DN(___,0,0x000),
    DN(E_5,4,0x000),
    DN(___,0,0x000),
    DN(B_5,3,0x000),
    DN(___,0,0x000),
    DN(G_6,2,0x000),
    DN(___,0,0x000),
    DN(A_6,2,0x000),
    DN(___,0,0x000),
    DN(E_5,4,0x000),
    DN(___,0,0x000),
    DN(E_5,4,0x000),
    DN(___,0,0x000),
    DN(E_6,2,0x000),
    DN(___,0,0x000),
    DN(D_6,2,0x000),
    DN(___,0,0x000),
    DN(E_6,2,0x000),
    DN(___,0,0x000),
    DN(B_5,3,0x000),
    DN(___,0,0x000),
    DN(D_6,2,0x000),
    DN(___,0,0x000),
    DN(E_6,2,0x000),
    DN(___,0,0x000),
    DN(E_5,4,0x000),
    DN(___,0,0x000),
    DN(D_6,2,0x000),
    DN(___,0,0x000),
    DN(E_6,2,0x000),
    DN(___,0,0x000),
    DN(D_6,2,0x000),
    DN(___,0,0x000),
    DN(E_5,4,0x000),
    DN(___,0,0x000),
    DN(B_5,3,0x000),
    DN(___,0,0x000),
    DN(E_6,2,0x000),
    DN(___,0,0x000),
    DN(E_5,4,0x000),
    DN(___,0,0x000),
    DN(E_5,4,0x000),
    DN(___,0,0x000),
};
static const unsigned char P72[] = {
    DN(E_4,1,0x455),
    DN(___,0,0x455),
    DN(___,0,0x455),
    DN(___,0,0x101),
    DN(B_4,1,0x000),
    DN(___,0,0x000),
    DN(___,0,0x000),
    DN(___,0,0x000),
    DN(Gs4,1,0x455),
    DN(___,0,0x455),
    DN(___,0,0x455),
    DN(___,0,0x102),
    DN(A_4,1,0x000),
    DN(___,0,0x000),
    DN(___,0,0x000),
    DN(___,0,0x000),
    DN(Gs4,1,0x455),
    DN(___,0,0x455),
    DN(___,0,0x201),
    DN(___,0,0x201),
    DN(___,0,0x201),
    DN(___,0,0x201),
    DN(___,0,0x201),
    DN(___,0,0x201),
    DN(Ds4,1,0x455),
    DN(___,0,0x455),
    DN(___,0,0x455),
    DN(___,0,0x455),
    DN(___,0,0x455),
    DN(___,0,0x455),
    DN(___,0,0x201),
    DN(___,0,0x201),
    DN(Cs4,1,0x000),
    DN(___,0,0x000),
    DN(___,0,0x000),
    DN(___,0,0x000),
    DN(___,0,0x000),
    DN(___,0,0x201),
    DN(B_3,1,0x455),
    DN(___,0,0x455),
    DN(___,0,0x000),
    DN(___,0,0x000),
    DN(A_3,1,0x000),
    DN(___,0,0x000),
    DN(___,0,0x000),
    DN(___,0,0x000),
    DN(Gs3,1,0x455),
    DN(___,0,0x455),
    DN(___,0,0x455),
    DN(___,0,0x455),
    DN(___,0,0x455),
    DN(___,0,0x201),
    DN(___,0,0x201),
    DN(___,0,0x201),
    DN(Ds3,1,0x000),
    DN(___,0,0x000),
    DN(___,0,0x000),
    DN(___,0,0x000),
    DN(___,0,0x101),
    DN(___,0,0x101),
    DN(___,0,0x101),
    DN(___,0,0x102),
    DN(___,0,0x102),
    DN(___,0,0x102),
};
static const unsigned char P80[] = {
    DN(E_4,1,0x452),
    DN(___,0,0x452),
    DN(___,0,0x452),
    DN(___,0,0x101),
    DN(B_4,1,0x000),
    DN(___,0,0x000),
    DN(___,0,0x000),
    DN(___,0,0x000),
    DN(Gs4,1,0x452),
    DN(___,0,0x452),
    DN(___,0,0x452),
    DN(___,0,0x102),
    DN(A_4,1,0x000),
    DN(___,0,0x000),
    DN(___,0,0x000),
    DN(___,0,0x000),
    DN(Gs4,1,0x452),
    DN(___,0,0x452),
    DN(___,0,0x201),
    DN(___,0,0x201),
    DN(___,0,0x201),
    DN(___,0,0x201),
    DN(___,0,0x201),
    DN(___,0,0x201),
    DN(Ds4,1,0x452),
    DN(___,0,0x452),
    DN(___,0,0x452),
    DN(___,0,0x452),
    DN(___,0,0x452),
    DN(___,0,0x452),
    DN(___,0,0x201),
    DN(___,0,0x201),
    DN(Cs4,1,0x000),
    DN(___,0,0x000),
    DN(___,0,0x000),
    DN(___,0,0x000),
    DN(___,0,0x000),
    DN(___,0,0x201),
    DN(B_3,1,0x452),
    DN(___,0,0x452),
    DN(___,0,0x000),
    DN(___,0,0x000),
    DN(A_3,1,0x000),
    DN(___,0,0x000),
    DN(___,0,0x000),
    DN(___,0,0x000),
    DN(Gs3,1,0x452),
    DN(___,0,0x452),
    DN(___,0,0x452),
    DN(___,0,0x452),
    DN(___,0,0x452),
    DN(___,0,0x201),
    DN(___,0,0x201),
    DN(___,0,0x201),
    DN(Ds3,1,0x000),
    DN(___,0,0x000),
    DN(___,0,0x000),
    DN(___,0,0x000),
    DN(___,0,0x101),
    DN(___,0,0x101),
    DN(___,0,0x101),
    DN(___,0,0x102),
    DN(___,0,0x102),
    DN(___,0,0x102),
};
static const unsigned char P82[] = {
    DN(C_5,0,0xC00),
    DN(___,0,0x000),
    DN(___,0,0x000),
    DN(___,0,0x000),
    DN(___,0,0x000),
    DN(___,0,0x000),
    DN(___,0,0x000),
    DN(___,0,0x000),
    DN(___,0,0x000),
    DN(___,0,0x000),
    DN(___,0,0x000),
    DN(___,0,0x000),
    DN(___,0,0x000),
    DN(___,0,0x000),
    DN(___,0,0x000),
    DN(___,0,0x000),
    DN(___,0,0x000),
    DN(___,0,0x000),
    DN(___,0,0x000),
    DN(___,0,0x000),
    DN(___,0,0x000),
    DN(___,0,0x000),
    DN(___,0,0x000),
    DN(___,0,0x000),
    DN(___,0,0x000),
    DN(___,0,0x000),
    DN(___,0,0x000),
    DN(___,0,0x000),
    DN(___,0,0x000),
    DN(___,0,0x000),
    DN(___,0,0x000),
    DN(___,0,0x000),
    DN(___,0,0x000),
    DN(___,0,0x000),
    DN(___,0,0x000),
    DN(___,0,0x000),
    DN(___,0,0x000),
    DN(___,0,0x000),
    DN(___,0,0x000),
    DN(___,0,0x000),
    DN(___,0,0x000),
    DN(___,0,0x000),
    DN(___,0,0x000),
    DN(___,0,0x000),
    DN(___,0,0x000),
    DN(___,0,0x000),
    DN(___,0,0x000),
    DN(___,0,0x000),
    DN(___,0,0x000),
    DN(___,0,0x000),
    DN(___,0,0x000),
    DN(___,0,0x000),
    DN(___,0,0x000),
    DN(___,0,0x000),
    DN(___,0,0x000),
    DN(___,0,0x000),
    DN(___,0,0x000),
    DN(___,0,0x000),
    DN(___,0,0x000),
    DN(___,0,0x000),
    DN(___,0,0x000),
    DN(___,0,0x000),
    DN(___,0,0x000),
    DN(___,0,0x000),
};
static const unsigned char P90[] = {
    DN(E_6,1,0xEB5),
    DN(___,0,0xEB5),
    DN(___,0,0xEB4),
    DN(___,0,0xEB4),
    DN(___,0,0xEB4),
    DN(___,0,0xEB3),
    DN(___,0,0xEB3),
    DN(___,0,0xEB3),
    DN(___,0,0xEB3),
    DN(___,0,0xEB3),
    DN(___,0,0xEB3),
    DN(___,0,0xEB3),
    DN(___,0,0xEB3),
    DN(___,0,0x000),
    DN(___,0,0x000),
    DN(___,0,0x000),
    DN(___,0,0x000),
    DN(___,0,0x000),
    DN(___,0,0x000),
    DN(___,0,0x000),
    DN(___,0,0x000),
    DN(___,0,0x000),
    DN(___,0,0x000),
    DN(___,0,0x000),
    DN(___,0,0x000),
    DN(___,0,0x000),
    DN(___,0,0x000),
    DN(___,0,0x000),
    DN(___,0,0x000),
    DN(___,0,0x000),
    DN(___,0,0x000),
    DN(___,0,0x000),
    DN(___,0,0x000),
    DN(___,0,0x000),
    DN(___,0,0x000),
    DN(___,0,0x000),
    DN(___,0,0x000),
    DN(___,0,0x000),
    DN(___,0,0x000),
    DN(___,0,0x000),
    DN(___,0,0x000),
    DN(___,0,0x000),
    DN(___,0,0x000),
    DN(___,0,0x000),
    DN(___,0,0x000),
    DN(___,0,0x000),
    DN(___,0,0x000),
    DN(___,0,0x000),
    DN(___,0,0x000),
    DN(___,0,0x000),
    DN(___,0,0x000),
    DN(___,0,0x000),
    DN(___,0,0x000),
    DN(___,0,0x000),
    DN(___,0,0x000),
    DN(___,0,0x000),
    DN(___,0,0x000),
    DN(___,0,0x000),
    DN(___,0,0x000),
    DN(___,0,0x000),
    DN(___,0,0x000),
    DN(___,0,0x000),
    DN(___,0,0x000),
    DN(___,0,0x000),
};
static const unsigned char P101[] = {
    DN(___,0,0x000),
    DN(___,0,0x000),
    DN(___,0,0x000),
    DN(___,0,0x000),
    DN(___,0,0x000),
    DN(___,0,0x000),
    DN(___,0,0x000),
    DN(___,0,0x000),
    DN(___,0,0x000),
    DN(___,0,0x000),
    DN(___,0,0x000),
    DN(___,0,0x000),
    DN(___,0,0x000),
    DN(___,0,0x000),
    DN(___,0,0x000),
    DN(___,0,0x000),
    DN(___,0,0x000),
    DN(___,0,0x000),
    DN(___,0,0x000),
    DN(___,0,0x000),
    DN(___,0,0x000),
    DN(___,0,0x000),
    DN(___,0,0x000),
    DN(___,0,0x000),
    DN(___,0,0x000),
    DN(___,0,0x000),
    DN(___,0,0x000),
    DN(___,0,0x000),
    DN(___,0,0x000),
    DN(___,0,0x000),
    DN(___,0,0x000),
    DN(___,0,0x000),
    DN(___,0,0x000),
    DN(___,0,0x000),
    DN(___,0,0x000),
    DN(___,0,0x000),
    DN(___,0,0x000),
    DN(___,0,0x000),
    DN(___,0,0x000),
    DN(___,0,0x000),
    DN(___,0,0x000),
    DN(___,0,0x000),
    DN(___,0,0x000),
    DN(___,0,0x000),
    DN(___,0,0x000),
    DN(___,0,0x000),
    DN(___,0,0x000),
    DN(___,0,0x000),
    DN(___,0,0x000),
    DN(___,0,0x000),
    DN(___,0,0x000),
    DN(___,0,0x000),
    DN(___,0,0x000),
    DN(___,0,0x000),
    DN(D_6,2,0x000),
    DN(___,0,0x000),
    DN(B_5,3,0x000),
    DN(___,0,0x000),
    DN(E_5,4,0x000),
    DN(___,0,0x000),
    DN(E_6,2,0x000),
    DN(___,0,0x000),
    DN(D_6,2,0x000),
    DN(___,0,0x000),
};
static const unsigned char P111[] = {
    DN(G_5,2,0x000),
    DN(___,0,0x000),
    DN(___,0,0x000),
    DN(___,0,0x000),
    DN(___,0,0x000),
    DN(___,0,0x000),
    DN(___,0,0x000),
    DN(___,0,0x000),
    DN(G_5,2,0x000),
    DN(___,0,0x000),
    DN(___,0,0x000),
    DN(___,0,0x000),
    DN(___,0,0x000),
    DN(___,0,0x000),
    DN(___,0,0x000),
    DN(___,0,0x000),
    DN(G_5,2,0x000),
    DN(___,0,0x000),
    DN(___,0,0x000),
    DN(___,0,0x000),
    DN(___,0,0x000),
    DN(___,0,0x000),
    DN(___,0,0x000),
    DN(___,0,0x000),
    DN(G_5,2,0x000),
    DN(___,0,0x000),
    DN(___,0,0x000),
    DN(___,0,0x000),
    DN(E_5,4,0x000),
    DN(___,0,0x000),
    DN(___,0,0x000),
    DN(___,0,0x000),
    DN(E_5,4,0x000),
    DN(___,0,0x000),
    DN(___,0,0x000),
    DN(___,0,0x000),
    DN(___,0,0x000),
    DN(___,0,0x000),
    DN(___,0,0x000),
    DN(___,0,0x000),
    DN(G_5,2,0x000),
    DN(___,0,0x000),
    DN(___,0,0x000),
    DN(___,0,0x000),
    DN(___,0,0x000),
    DN(___,0,0x000),
    DN(___,0,0x000),
    DN(___,0,0x000),
    DN(G_5,2,0x000),
    DN(___,0,0x000),
    DN(___,0,0x000),
    DN(___,0,0x000),
    DN(___,0,0x000),
    DN(___,0,0x000),
    DN(___,0,0x000),
    DN(___,0,0x000),
    DN(G_5,2,0x000),
    DN(___,0,0x000),
    DN(E_5,4,0x000),
    DN(___,0,0x000),
    DN(___,0,0x000),
    DN(___,0,0x000),
    DN(E_5,4,0x000),
    DN(___,0,0x000),
};

static const unsigned char* const order1[] = {P0,P0,P0,P0,P0,P0,P0,P0,P0,P0,P0,P40,P0,P0,P0,P90,P80,P80,P80,P40,P0,P0,P40,P0,P0,P0,P40,P0,P80,P80,P82};
static const unsigned char* const order2[] = {P1,P1,P1,P21,P21,P21,P101,P71,P21,P71,P71,P21,P71,P21,P21,P21,P21,P21,P111,P21,P21,P21,P21,P71,P71,P101,P21,P71,P21,P111,P1};
static const unsigned char* const order3[] = {P1,P2,P2,P22,P22,P2,P2,P72,P22,P72,P72,P3,P72,P22,P22,P22,P82,P82,P82,P3,P22,P2,P3,P72,P72,P2,P3,P72,P82,P82,P1};
static const unsigned char* const order4[] = {P3,P3,P3,P3,P3,P3,P3,P3,P3,P3,P3,P43,P3,P3,P3,P3,P3,P3,P3,P43,P3,P3,P43,P3,P3,P3,P43,P3,P3,P3,P3};

static const unsigned char duty_instruments[] = {
64,64,144,128,
124,183,149,192,
104,251,198,192,
28,61,133,192,
8,128,240,128,
8,128,240,128,
8,128,240,128,
8,128,240,128,
8,128,240,128,
8,128,240,128,
8,128,240,128,
8,128,240,128,
8,128,240,128,
8,128,240,128,
8,128,240,128,
};
static const unsigned char wave_instruments[] = {
0,32,8,128,
0,32,1,128,
0,32,2,128,
0,32,3,128,
0,32,4,128,
0,32,5,128,
0,32,6,128,
0,32,0,128,
0,32,1,128,
0,32,2,128,
0,32,3,128,
0,32,4,128,
0,32,5,128,
0,32,6,128,
0,32,7,128,
};
static const unsigned char noise_instruments[] = {
240,0,0,0,0,0,0,0,
240,0,0,0,0,0,0,0,
240,0,0,0,0,0,0,0,
240,0,0,0,0,0,0,0,
240,0,0,0,0,0,0,0,
240,0,0,0,0,0,0,0,
240,0,0,0,0,0,0,0,
240,0,0,0,0,0,0,0,
240,0,0,0,0,0,0,0,
240,0,0,0,0,0,0,0,
240,0,0,0,0,0,0,0,
240,0,0,0,0,0,0,0,
240,0,0,0,0,0,0,0,
240,0,0,0,0,0,0,0,
240,0,0,0,0,0,0,0,
};

static const unsigned char waves[] = {
    165,215,201,225,188,154,118,49,12,186,222,96,27,202,3,147,
    240,225,210,195,180,165,150,135,120,105,90,75,60,45,30,15,
    253,236,219,202,185,168,151,134,121,104,87,70,53,36,19,2,
    222,254,220,186,154,169,135,119,136,135,101,86,84,50,16,18,
    171,205,239,237,203,160,18,62,220,186,188,222,254,220,50,16,
    255,238,221,204,187,170,153,136,119,102,85,68,51,34,17,0,
    255,255,255,255,255,255,255,255,0,0,0,0,0,0,0,0,
    121,188,222,239,255,238,220,185,117,67,33,16,0,17,35,69,
    56,124,152,179,51,174,20,74,169,135,220,105,119,101,33,141,
    109,181,39,232,91,201,198,189,123,153,161,117,45,197,236,210,
    201,42,117,3,201,146,134,184,131,177,99,76,75,236,33,7,
    225,17,192,184,48,148,29,119,72,163,221,225,83,117,61,122,
    115,2,109,228,18,145,210,59,50,38,205,142,122,4,77,133,
    44,164,109,59,130,94,238,124,192,103,42,179,217,64,129,19,
    174,221,179,233,196,9,98,206,84,225,20,146,85,129,142,188,
    64,39,11,35,189,145,116,75,57,81,179,54,83,110,208,88,
};

const hUGESong_t part1_music = {7, &order_cnt, order1, order2, order3,order4, duty_instruments, wave_instruments, noise_instruments, NULL, waves};
